<?xml version="1.0" standalone="no"?><!DOCTYPE svg PUBLIC "-//W3C//DTD SVG 1.1//EN" "http://www.w3.org/Graphics/SVG/1.1/DTD/svg11.dtd"><svg t="1606965056310" class="icon" viewBox="0 0 1024 1024" version="1.1" xmlns="http://www.w3.org/2000/svg" p-id="3460" width="72" height="72" xmlns:xlink="http://www.w3.org/1999/xlink"><defs><style type="text/css">@font-face { font-family: element-icons; src: url("chrome-extension://moombeodfomdpjnpocobemoiaemednkg/fonts/element-icons.woff") format("woff"), url("chrome-extension://moombeodfomdpjnpocobemoiaemednkg/fonts/element-icons.ttf ") format("truetype"); }
</style></defs><path d="M362.667 618.667H448V576h-85.333v42.667z m-128-256H320V320h-85.333v42.667z m0 128H320V448h-85.333v42.667z m0 128H320V576h-85.333v42.667z m128-256H448V320h-85.333v42.667z m362.666 192H768v-64h-42.667v64z m-362.666-64H448V448h-85.333v42.667zM853.333 320h-256V192c0-47.125-38.208-85.333-85.333-85.333H170.667c-47.126 0-85.334 38.208-85.334 85.333v640c0 47.125 38.208 85.333 85.334 85.333h768v-512c0-47.125-38.208-85.333-85.334-85.333zM554.667 874.667h-384C147.093 874.667 128 855.573 128 832V192c0-23.573 19.093-42.667 42.667-42.667H512c23.573 0 42.667 19.094 42.667 42.667v682.667z m341.333 0H597.333v-512h256c23.574 0 42.667 19.093 42.667 42.666v469.334z m-170.667-192H768v-64h-42.667v64z" p-id="3461" fill="#585758"></path></svg>