<?xml version="1.0" standalone="no"?><!DOCTYPE svg PUBLIC "-//W3C//DTD SVG 1.1//EN" "http://www.w3.org/Graphics/SVG/1.1/DTD/svg11.dtd"><svg t="1606965137437" class="icon" viewBox="0 0 1024 1024" version="1.1" xmlns="http://www.w3.org/2000/svg" p-id="4983" width="72" height="72" xmlns:xlink="http://www.w3.org/1999/xlink"><defs><style type="text/css">@font-face { font-family: element-icons; src: url("chrome-extension://moombeodfomdpjnpocobemoiaemednkg/fonts/element-icons.woff") format("woff"), url("chrome-extension://moombeodfomdpjnpocobemoiaemednkg/fonts/element-icons.ttf ") format("truetype"); }
</style></defs><path d="M900.89 262h-148.6l-47.77-107.48c-15.76-35.4-57.75-59.19-104.44-59.19H423.92c-46.69 0-88.68 23.79-104.47 59.22L271.71 262h-148.6A111.22 111.22 0 0 0 12 373.11v444.45a111.22 111.22 0 0 0 111.11 111.11h777.78A111.22 111.22 0 0 0 1012 817.56V373.11A111.22 111.22 0 0 0 900.89 262z m55.56 555.56a55.63 55.63 0 0 1-55.56 55.56H123.11a55.63 55.63 0 0 1-55.56-55.56V373.11a55.63 55.63 0 0 1 55.56-55.56h166.67a27.78 27.78 0 0 0 25.39-16.49l55-123.91c6.78-15.22 29.38-26.26 53.71-26.26h176.2c24.33 0 46.93 11 53.68 26.23l55.07 123.94a27.78 27.78 0 0 0 25.39 16.49h166.67a55.63 55.63 0 0 1 55.56 55.56z" p-id="4984" fill="#585758"></path><path d="M512 373.11c-107.2 0-194.44 87.24-194.44 194.44S404.8 762 512 762s194.44-87.24 194.44-194.44S619.2 373.11 512 373.11z m0 333.33c-76.58 0-138.89-62.31-138.89-138.89S435.42 428.67 512 428.67 650.89 491 650.89 567.56 588.58 706.44 512 706.44z" p-id="4985" fill="#585758"></path></svg>