<?xml version="1.0" standalone="no"?><!DOCTYPE svg PUBLIC "-//W3C//DTD SVG 1.1//EN" "http://www.w3.org/Graphics/SVG/1.1/DTD/svg11.dtd"><svg t="1606965045467" class="icon" viewBox="0 0 1024 1024" version="1.1" xmlns="http://www.w3.org/2000/svg" p-id="3269" width="72" height="72" xmlns:xlink="http://www.w3.org/1999/xlink"><defs><style type="text/css">@font-face { font-family: element-icons; src: url("chrome-extension://moombeodfomdpjnpocobemoiaemednkg/fonts/element-icons.woff") format("woff"), url("chrome-extension://moombeodfomdpjnpocobemoiaemednkg/fonts/element-icons.ttf ") format("truetype"); }
</style></defs><path d="M811.733 149.333v725.334H212.267V149.333h599.466m0-42.666H212.267a42.667 42.667 0 0 0-42.667 42.666v725.334a42.667 42.667 0 0 0 42.667 42.666h599.466a42.667 42.667 0 0 0 42.667-42.666V149.333a42.667 42.667 0 0 0-42.667-42.666z" p-id="3270" fill="#585758"></path><path d="M564.267 298.667H329.6a21.333 21.333 0 0 0 0 42.666h234.667a21.333 21.333 0 0 0 0-42.666z m129.066 192H330.667a21.333 21.333 0 0 0 0 42.666h362.666a21.333 21.333 0 0 0 0-42.666z m0 192H330.667a21.333 21.333 0 0 0 0 42.666h362.666a21.333 21.333 0 0 0 0-42.666z" p-id="3271" fill="#585758"></path></svg>