<?xml version="1.0" standalone="no"?><!DOCTYPE svg PUBLIC "-//W3C//DTD SVG 1.1//EN" "http://www.w3.org/Graphics/SVG/1.1/DTD/svg11.dtd"><svg t="1647325456709" class="icon" viewBox="0 0 1024 1024" version="1.1" xmlns="http://www.w3.org/2000/svg" p-id="2203" xmlns:xlink="http://www.w3.org/1999/xlink" width="64" height="64"><defs><style type="text/css"></style></defs><path d="M734.402811 128.410602c-96.690156 0-189.401698 62.662155-222.543515 148.302651-33.053814-85.639472-125.94034-148.302651-222.452441-148.302651-125.765355 0-222.543515 95.538937-222.543515 222.454488 0 174.551478 187.543374 309.419142 444.994933 568.639998 257.543657-259.220856 445.088054-394.08852 445.088054-568.639998C956.94735 223.949538 860.167143 128.410602 734.402811 128.410602zM511.906367 816.210513C318.847373 627.992781 137.484769 496.05382 137.484769 369.313254c0-92.15384 72.572876-161.523767 166.882821-161.523767 72.373331 0 182.753277 123.468033 207.5398 185.65128 24.787546-62.183248 135.164423-185.65128 207.5398-185.65128 94.309946 0 166.882821 69.369927 166.882821 161.523767C886.328989 496.05382 704.965361 627.992781 511.906367 816.210513z" p-id="2204" fill="#585758"></path></svg>