<?xml version="1.0" standalone="no"?><!DOCTYPE svg PUBLIC "-//W3C//DTD SVG 1.1//EN" "http://www.w3.org/Graphics/SVG/1.1/DTD/svg11.dtd"><svg t="1627306044678" class="icon" viewBox="0 0 1024 1024" version="1.1" xmlns="http://www.w3.org/2000/svg" p-id="5280" xmlns:xlink="http://www.w3.org/1999/xlink" width="48" height="48"><defs><style type="text/css">@font-face { font-family: feedback-iconfont; src: url("//at.alicdn.com/t/font_1031158_1uhr8ri0pk5.eot?#iefix") format("embedded-opentype"), url("//at.alicdn.com/t/font_1031158_1uhr8ri0pk5.woff2") format("woff2"), url("//at.alicdn.com/t/font_1031158_1uhr8ri0pk5.woff") format("woff"), url("//at.alicdn.com/t/font_1031158_1uhr8ri0pk5.ttf") format("truetype"), url("//at.alicdn.com/t/font_1031158_1uhr8ri0pk5.svg#iconfont") format("svg"); }
</style></defs><path d="M498.924308 852.283077a101.848615 101.848615 0 0 1-51.987693-23.433846l-275.298461-235.835077a243.2 243.2 0 0 1-51.475692-59.273846 237.961846 237.961846 0 0 1-22.055385-46.631385A233.787077 233.787077 0 0 1 86.646154 385.969231a234.535385 234.535385 0 0 1 40.723692-109.568A241.900308 241.900308 0 0 1 193.772308 211.652923a247.059692 247.059692 0 0 1 112.324923-39.739077 254.818462 254.818462 0 0 1 74.24 3.544616 248.910769 248.910769 0 0 1 109.095384 51.357538c6.340923 5.198769 12.406154 10.712615 18.156308 16.462769L512 247.729231l4.411077-4.450462a245.720615 245.720615 0 0 1 103.581538-61.912615 251.864615 251.864615 0 0 1 189.952 18.235077 246.429538 246.429538 0 0 1 56.713847 41.353846 241.033846 241.033846 0 0 1 52.696615 76.248615 233.038769 233.038769 0 0 1 19.298461 93.341539 233.708308 233.708308 0 0 1-34.816 123.195077 240.364308 240.364308 0 0 1-51.475692 59.273846l-275.298461 235.835077a101.376 101.376 0 0 1-65.063385 24.497231 103.660308 103.660308 0 0 1-13.075692-1.024zM512 790.685538a38.281846 38.281846 0 0 0 17.604923-5.238153 37.651692 37.651692 0 0 0 5.041231-3.66277l275.692308-236.110769a177.545846 177.545846 0 0 0 54.665846-78.532923 173.174154 173.174154 0 0 0-4.844308-125.479385 175.340308 175.340308 0 0 0-38.990769-56.359384 182.941538 182.941538 0 0 0-128.433231-51.908923 187.667692 187.667692 0 0 0-53.76 7.916307 185.107692 185.107692 0 0 0-63.094154 33.555693c-4.686769 3.859692-9.137231 7.876923-13.390769 12.169846L512 337.604923l-50.491077-50.609231a179.712 179.712 0 0 0-43.323077-32.059077 184.910769 184.910769 0 0 0-105.550769-20.676923 184.162462 184.162462 0 0 0-82.865231 29.302154A182.665846 182.665846 0 0 0 180.578462 311.532308a174.592 174.592 0 0 0-30.050462 80.81723 177.073231 177.073231 0 0 0 0.118154 37.572924 175.340308 175.340308 0 0 0 63.015384 115.712l275.692308 236.110769a38.951385 38.951385 0 0 0 7.68 5.12 35.682462 35.682462 0 0 0 14.966154 3.780923z" p-id="5281" fill="#8a8a8a"></path></svg>