<?xml version="1.0" standalone="no"?><!DOCTYPE svg PUBLIC "-//W3C//DTD SVG 1.1//EN" "http://www.w3.org/Graphics/SVG/1.1/DTD/svg11.dtd"><svg t="1613987429809" class="icon" viewBox="0 0 1024 1024" version="1.1" xmlns="http://www.w3.org/2000/svg" p-id="4156" xmlns:xlink="http://www.w3.org/1999/xlink" width="104" height="104"><defs><style type="text/css"></style></defs><path d="M808.09 57.61q-40.67-29.37-90.37-43.49Q668.02 0 613.8 0q-91.49 0-171.13 42.92-79.63 42.92-132.72 126.52-74.55 118.6-53.65 249.06 20.89 130.47 122.56 220.84l-36.15 57.61-213.48-136.68q-2.26-3.39-28.24-11.86-25.98-8.47-44.06 15.25-15.81 30.49 2.82 50.83t22.02 21.47l213.49 137.81-119.73 184.12q-2.26 1.13-5.65 20.33-3.39 19.2 23.72 37.27 32.76 15.82 49.14 2.26 16.38-13.55 16.38-16.95l115.21-180.73 210.1 137.81q2.26 3.39 29.94 11.29 27.67 7.91 49.13-19.2 12.43-24.85-6.21-44.06-18.64-19.2-22.03-20.33L421.77 744.39l36.15-54.22q38.41 19.2 77.94 27.67 39.53 8.47 77.93 8.47 90.37 0 170.57-42.92 80.2-42.92 132.16-126.51 80.2-131.03 49.13-271.66-31.06-140.63-157.57-227.61z m40.66 451.83q-39.53 57.6-98.27 89.79-58.74 32.2-129.9 33.33-38.41 0-76.82-10.73-38.4-10.73-71.15-33.32-96.02-65.52-120.31-171.13-24.28-105.62 36.72-203.88 39.53-55.35 99.4-87.55 59.87-32.19 128.77-35.57 38.41 0 76.81 10.73 38.4 10.73 71.15 32.19 96.02 66.64 120.3 172.26 24.29 105.62-36.71 203.89z" fill="#d4237a" p-id="4157"></path></svg>