<?xml version="1.0" standalone="no"?><!DOCTYPE svg PUBLIC "-//W3C//DTD SVG 1.1//EN" "http://www.w3.org/Graphics/SVG/1.1/DTD/svg11.dtd"><svg t="1606965119886" class="icon" viewBox="0 0 1024 1024" version="1.1" xmlns="http://www.w3.org/2000/svg" p-id="4603" width="72" height="72" xmlns:xlink="http://www.w3.org/1999/xlink"><defs><style type="text/css">@font-face { font-family: element-icons; src: url("chrome-extension://moombeodfomdpjnpocobemoiaemednkg/fonts/element-icons.woff") format("woff"), url("chrome-extension://moombeodfomdpjnpocobemoiaemednkg/fonts/element-icons.ttf ") format("truetype"); }
</style></defs><path d="M512 46.545C254.93 46.545 46.545 254.93 46.545 512c0 257.07 208.384 465.455 465.455 465.455 257.07 0 465.455-208.384 465.455-465.455C977.455 254.93 769.07 46.545 512 46.545z m0 884.364C280.623 930.91 93.09 743.377 93.09 512 93.09 280.623 280.624 93.09 512 93.09c231.377 0 418.91 187.533 418.91 418.91 0 231.377-187.533 418.91-418.91 418.91z m0-256c-25.693 0-46.545 20.852-46.545 46.546S486.307 768 512 768s46.545-20.852 46.545-46.545-20.852-46.546-46.545-46.546zM512 256c-77.126 0-139.636 62.51-139.636 139.636h46.545c0-51.386 41.658-93.09 93.091-93.09s93.09 41.704 93.09 93.09-41.657 93.091-93.09 93.091c-8.099 0-15.779-1.35-23.273-3.304V605.09c0 12.846 10.426 23.273 23.273 23.273s23.273-10.427 23.273-23.273v-72.146c66.001-11.17 116.363-68.142 116.363-137.309C651.636 318.511 589.126 256 512 256z" p-id="4604" fill="#585758"></path></svg>