<?xml version="1.0" standalone="no"?><!DOCTYPE svg PUBLIC "-//W3C//DTD SVG 1.1//EN" "http://www.w3.org/Graphics/SVG/1.1/DTD/svg11.dtd"><svg t="1627103822158" class="icon" viewBox="0 0 1024 1024" version="1.1" xmlns="http://www.w3.org/2000/svg" p-id="1741" xmlns:xlink="http://www.w3.org/1999/xlink" width="48" height="48"><defs><style type="text/css">@font-face { font-family: feedback-iconfont; src: url("//at.alicdn.com/t/font_1031158_1uhr8ri0pk5.eot?#iefix") format("embedded-opentype"), url("//at.alicdn.com/t/font_1031158_1uhr8ri0pk5.woff2") format("woff2"), url("//at.alicdn.com/t/font_1031158_1uhr8ri0pk5.woff") format("woff"), url("//at.alicdn.com/t/font_1031158_1uhr8ri0pk5.ttf") format("truetype"), url("//at.alicdn.com/t/font_1031158_1uhr8ri0pk5.svg#iconfont") format("svg"); }
</style></defs><path d="M926.56 120.8c-0.224-1.344-0.32-2.72-0.8-4.032l-0.032-0.032c-0.8-2.176-2.112-3.968-3.36-5.888-0.032-0.064-0.064-0.096-0.096-0.16-0.832-1.28-1.216-2.688-2.24-3.872-0.224-0.256-0.544-0.352-0.768-0.608-1.6-1.728-3.584-2.88-5.568-4.224 0-0.032-0.032-0.032-0.064-0.064-1.504-1.024-2.848-2.272-4.48-3.008h-0.032C905.088 97.12 900.672 96 896 96H672c-17.696 0-32 14.336-32 32s14.304 32 32 32h139.328L658.624 294.656C599.808 250.496 527.04 224 448 224 253.92 224 96 381.92 96 576s157.92 352 352 352 352-157.92 352-352c0-91.904-35.68-175.424-93.6-238.176L864 198.88V320c0 17.664 14.304 32 32 32s32-14.336 32-32V128c0-2.56-0.864-4.8-1.44-7.2zM736 576c0 158.816-129.184 288-288 288-158.784 0-288-129.184-288-288 0-158.784 129.216-288 288-288 158.816 0 288 129.216 288 288z" fill="#1296db" p-id="1742"></path></svg>