<?xml version="1.0" standalone="no"?><!DOCTYPE svg PUBLIC "-//W3C//DTD SVG 1.1//EN" "http://www.w3.org/Graphics/SVG/1.1/DTD/svg11.dtd"><svg t="1613987409969" class="icon" viewBox="0 0 1024 1024" version="1.1" xmlns="http://www.w3.org/2000/svg" p-id="2832" xmlns:xlink="http://www.w3.org/1999/xlink" width="104" height="104"><defs><style type="text/css"></style></defs><path d="M977.23 0.19H681.85q-2.47-1.23-22.16 6.77t-25.84 44.92q1.23 18.46 14.15 32t33.85 14.77h172.3l-220.3 220.31q-50.47-38.16-111.39-60.31-60.92-22.15-128.61-22.15-166.16 3.69-277.55 114.46Q4.92 461.73 0 629.11q4.92 166.16 116.3 277.54 111.39 111.38 277.55 116.31 167.38-4.92 278.76-116.31 111.38-111.38 115.08-277.54 0-67.69-22.15-128.62-22.16-60.93-60.31-111.38l220.31-219.07v172.3q1.23 20.93 14.77 33.24 13.54 12.31 32 13.54 20.92-1.23 33.85-15.38 12.93-14.16 14.15-35.08V43.28h3.69q-4.92-30.77-24.62-37.54Q979.69-1.03 977.23 0.2zM393.85 925.73q-124.31-3.69-206.16-85.54-81.84-81.85-85.54-206.15 3.7-124.31 85.54-205.54 81.85-81.23 206.16-84.93 124.3 3.7 206.15 84.93 81.85 81.23 85.54 205.54-3.69 124.3-85.54 206.15-81.85 81.85-206.15 85.54z" fill="#1296db" p-id="2833"></path></svg>