<?xml version="1.0" standalone="no"?><!DOCTYPE svg PUBLIC "-//W3C//DTD SVG 1.1//EN" "http://www.w3.org/Graphics/SVG/1.1/DTD/svg11.dtd"><svg t="1606967792302" class="icon" viewBox="0 0 1024 1024" version="1.1" xmlns="http://www.w3.org/2000/svg" p-id="6928" width="72" height="72" xmlns:xlink="http://www.w3.org/1999/xlink"><defs><style type="text/css">@font-face { font-family: element-icons; src: url("chrome-extension://moombeodfomdpjnpocobemoiaemednkg/fonts/element-icons.woff") format("woff"), url("chrome-extension://moombeodfomdpjnpocobemoiaemednkg/fonts/element-icons.ttf ") format("truetype"); }
</style></defs><path d="M199.6 597.7c0.5 0.2 1.1 0.5 1.6 0.6 69.2 24.9 138.9-2.4 177.6-63.2 25.6 51.4 85 83.9 142.4 83.9 57.4 0 109.9-32.5 135.4-83.9 39.5 61.8 106 83.9 167.4 62.9 79.7-27.2 116.2-123.9 87.4-203.6L838 144.9c-5.6-22.4-28.8-40.5-51.9-40.5H239.8c-23.1 0-46.3 18.2-51.9 40.5l-75 249.8c-28.6 79.4 10.2 168.9 86.7 203z m-47.4-188.8L228.5 155c0.9-3.7 7.5-8.9 11.4-8.9h546.3c3.9 0 10.4 5 11.4 8.9l74.6 253.6c21.1 58.6-7.3 125-63.5 150.8-54.8 9.8-88.1-1.6-116.7-46.6l-19.9-31.3c-8.7-13.7-29.1-12.7-36.3 1.9l-16.5 33.2c-18.4 37.3-56.4 60.9-98 60.8-41.6 0.1-86.6-22.5-105-59.8l-16.5-33.1c-7.2-14.6-27.6-15.6-36.3-1.9l-19.8 30.3c-28.4 44.8-76.8 64.1-126.7 47-0.7-0.2-1.4-0.5-2.1-0.9-55.7-26.1-83.7-91.9-62.7-150.1z" fill="#ffffff" p-id="6929"></path><path d="M291.5 396.8h441.4c11.5 0 20.9-9.4 20.9-20.9 0-11.5-9.3-20.9-20.9-20.9H291.5c-11.5 0-20.9 9.4-20.9 20.9 0 11.5 9.3 20.9 20.9 20.9zM846.4 647.4c-11.5 0-20.9 9.4-20.9 20.9V856c0.1 5.6-2.1 11-6.1 14.9-3.9 4-9.3 6.2-14.9 6.2H219.8c-11.6-0.1-21-9.5-20.9-21.1V668.3c0-11.5-9.4-20.9-20.9-20.9-11.5 0-20.9 9.4-20.9 20.9V856c0 34.7 28 62.8 62.7 62.9h584.7c16.7 0 32.6-6.6 44.4-18.4 11.8-11.8 18.3-27.8 18.3-44.5V668.3c0-11.6-9.3-20.9-20.8-20.9z" fill="#ffffff" p-id="6930"></path></svg>