<?xml version="1.0" standalone="no"?><!DOCTYPE svg PUBLIC "-//W3C//DTD SVG 1.1//EN" "http://www.w3.org/Graphics/SVG/1.1/DTD/svg11.dtd"><svg t="1606965128238" class="icon" viewBox="0 0 1024 1024" version="1.1" xmlns="http://www.w3.org/2000/svg" p-id="4793" width="72" height="72" xmlns:xlink="http://www.w3.org/1999/xlink"><defs><style type="text/css">@font-face { font-family: element-icons; src: url("chrome-extension://moombeodfomdpjnpocobemoiaemednkg/fonts/element-icons.woff") format("woff"), url("chrome-extension://moombeodfomdpjnpocobemoiaemednkg/fonts/element-icons.ttf ") format("truetype"); }
</style></defs><path d="M510.501 110.892c220.707 0 399.61 178.919 399.61 399.61 0 97.397-34.846 186.66-92.751 255.995L952.722 901.86a7.992 7.992 0 0 1 0 11.303l-39.56 39.56a7.992 7.992 0 0 1-11.303 0L766.497 817.36c-69.334 57.904-158.595 92.751-255.996 92.751-220.706 0-399.61-178.92-399.61-399.61s178.904-399.61 399.61-399.61z m0 71.93c-180.974 0-327.68 146.71-327.68 327.68s146.706 327.68 327.68 327.68 327.68-146.71 327.68-327.68-146.705-327.68-327.68-327.68z" p-id="4794" fill="#585758"></path></svg>